<svg width="32" height="32" viewBox="0 0 32 32" fill="none" xmlns="http://www.w3.org/2000/svg">
  <!-- Rounded square background with purple gradient -->
  <defs>
    <linearGradient id="purpleGradient" x1="0%" y1="0%" x2="100%" y2="100%">
      <stop offset="0%" style="stop-color:#8B5CF6;stop-opacity:1" /> 
      <stop offset="100%" style="stop-color:#6366F1;stop-opacity:1" />
    </linearGradient>
    <filter id="ghostShadow" x="-20%" y="-20%" width="140%" height="140%">
      <feDropShadow dx="0" dy="1" stdDeviation="1" flood-color="#000000" flood-opacity="0.1"/>
    </filter>
  </defs>
  
  <!-- Rounded square background -->
  <rect x="2" y="2" width="28" height="28" rx="6" ry="6" fill="url(#purpleGradient)"/>
  
  <!-- Ghost body -->
  <path d="M16 8C12.5 8 10 10.5 10 14V20C10 21 10.5 22 11.5 22C12 22 12.5 21.5 13 21C13.5 21.5 14 22 14.5 22C15 22 15.5 21.5 16 21C16.5 21.5 17 22 17.5 22C18 22 18.5 21.5 19 21C19.5 21.5 20 22 20.5 22C21.5 22 22 21 22 20V14C22 10.5 19.5 8 16 8Z" fill="white" filter="url(#ghostShadow)"/>
  
  <!-- Ghost eyes -->
  <ellipse cx="13.5" cy="14" rx="1.5" ry="2" fill="#000000"/>
  <ellipse cx="18.5" cy="14" rx="1.5" ry="2" fill="#000000"/>
</svg>
